<svg xmlns="http://www.w3.org/2000/svg" xmlns:xlink="http://www.w3.org/1999/xlink" width="29.572738647460938" height="35.157958984375" viewBox="0 0 30 36" fill="none"><path id="路径 1" fill-rule="evenodd" style="fill:#FFFFFF" opacity="0.7" d="M26.11 25.25C26.11 25.25 28.4 28.97 29.19 28.87C29.56 28.82 30.05 26.83 28.55 22.03C27.85 19.77 27.04 17.87 25.8 14.76C25.99 6.6 22.6 0 14.78 0C6.88 0 3.57 6.73 3.78 14.76C2.53 17.87 1.72 19.76 1.02 22.03C-0.47 26.84 0.01 28.83 0.38 28.87C1.17 28.97 3.46 25.25 3.46 25.25C3.46 27.4 4.57 30.21 6.97 32.24C5.81 32.59 3.2 33.55 3.82 34.6C4.32 35.45 12.44 35.14 14.78 34.88C17.13 35.14 25.25 35.45 25.75 34.6C26.37 33.56 23.76 32.59 22.6 32.24C25 30.21 26.11 27.4 26.11 25.25Z"></path></svg>
