<svg xmlns="http://www.w3.org/2000/svg" xmlns:xlink="http://www.w3.org/1999/xlink" width="34" height="34" viewBox="0 0 34 34" fill="none">
    <defs>
        <rect x="0" y="0" width="34" height="34" />
    </defs>
    <g opacity="1" transform="translate(0 0)  rotate(0 17 17)">
        <mask fill="white">
            <use xlink:href="#path_0"></use>
        </mask>
        <g mask="url(#bg-mask-0)">
            <g opacity="1" transform="translate(4.958328161202695 7.083332709669686)  rotate(0 12.041669258265843 9.916666984032336)">
                <path fill-rule="evenodd" style="fill:#FFFFFF" transform="translate(0.000005161062938352501 5.37412561259592)  rotate(0 12.041666677734375 7.229604177734376)" opacity="0.7" d="M15.25,7.49C13.4,9.06 10.69,9.06 8.84,7.49L0,0L0,12.33C0,13.51 0.95,14.46 2.13,14.46L21.96,14.46C23.13,14.46 24.08,13.51 24.08,12.33L24.08,0L15.25,7.49Z " />
                <path fill-rule="evenodd" style="fill:#FFFFFF" transform="translate(0 0)  rotate(0 12.041669258265811 6.218305912914635)" opacity="0.7" d="M23.92,1.3C23.84,1.11 23.73,0.94 23.61,0.78C23.37,0.49 23.06,0.27 22.72,0.14C22.47,0.05 22.22,0 21.96,0L2.13,0C1.79,0 1.46,0.08 1.17,0.23C0.45,0.59 0,1.32 0,2.13L0,2.83L10.66,11.93L10.77,12.01C11.56,12.61 12.66,12.57 13.42,11.93L24.08,2.83L24.08,2.13L24.08,2C24.06,1.75 24.01,1.52 23.92,1.3Z " />
            </g>
        </g>
    </g>
</svg>