<svg xmlns="http://www.w3.org/2000/svg" xmlns:xlink="http://www.w3.org/1999/xlink" width="32" height="32" viewBox="-2 -2 30 30">
    <path fill="#fff" opacity="0.7" d="M24.37,12C25.3,7.01 22.81,4.67 22.81,4.67C23.9,2.65 22.65,0 22.65,0C19.85,0 17.82,1.87 17.82,1.87C16.73,1.25 13.15,1.25 13.15,1.25C13.15,1.25 9.56,1.25 8.47,1.87C8.47,1.87 6.45,0 3.64,0C3.64,0 2.4,2.65 3.49,4.67C3.49,4.67 0.99,7.01 1.93,12C2.81,16.68 6.91,17.92 9.56,17.92C9.56,17.92 8.47,18.85 8.63,20.41C8.63,20.41 7.07,21.35 5.51,20.72C3.95,20.1 3.17,18.54 3.17,18.54C3.17,18.54 1.62,16.52 0.06,17.3C0.06,17.3 -0.41,17.76 1.3,18.54C1.3,18.54 2.55,20.41 3.02,21.5C3.49,22.59 5.98,23.53 8.47,22.91L8.47,26.49C8.47,26.49 8.47,26.8 7.85,26.96C7.23,27.11 7.23,27.42 7.54,27.42L18.76,27.42C19.07,27.42 19.07,27.11 18.45,26.96C17.82,26.8 17.82,26.49 17.82,26.49L17.82,22.91C17.82,22.91 17.84,21.04 17.82,20.41C17.79,18.85 16.73,17.92 16.73,17.92C19.38,17.92 23.49,16.68 24.37,12Z " />
</svg>