<svg xmlns="http://www.w3.org/2000/svg" xmlns:xlink="http://www.w3.org/1999/xlink" width="28" height="23" viewBox="0 0 28 23" fill="none">
    <path fill-rule="evenodd" style="fill:#FFFFFF" transform="translate(-0.000024414062579136697 0)  rotate(0 13.814160156249999 11.22265625)" opacity="0.7" d="M27.63,2.67C26.61,3.1 25.51,3.42 24.37,3.54C25.54,2.84 26.44,1.74 26.86,0.42C25.77,1.07 24.54,1.54 23.27,1.79C22.23,0.68 20.76,0 19.13,0C15.99,0 13.47,2.54 13.47,5.66C13.47,6.1 13.52,6.54 13.61,6.96C8.91,6.72 4.72,4.47 1.93,1.04C1.44,1.88 1.16,2.84 1.16,3.89C1.16,5.86 2.16,7.59 3.69,8.61C2.76,8.58 1.88,8.31 1.13,7.89L1.13,7.96C1.13,10.71 3.07,13 5.66,13.52C5.19,13.64 4.68,13.71 4.17,13.71C3.81,13.71 3.46,13.68 3.1,13.63C3.82,15.87 5.91,17.5 8.4,17.55C6.45,19.08 4.01,19.98 1.37,19.98C0.89,19.98 0.45,19.96 0,19.91C2.51,21.52 5.49,22.45 8.7,22.45C19.11,22.45 24.81,13.82 24.81,6.33C24.81,6.09 24.81,5.84 24.79,5.59C25.89,4.79 26.86,3.79 27.63,2.67Z " />
</svg>